<?xml version="1.0" encoding="UTF-8"?><svg xmlns="http://www.w3.org/2000/svg" viewBox="0 0 2551.36 2547.56"><g id="a"><rect x="28.76" y="46.14" width="2482.36" height="2482.36" rx="370.12" ry="370.12" style="stroke:#00ff04; stroke-miterlimit:10;"/></g><g id="b"><rect x="211.76" y="229.32" width="1029.21" height="1029.21" rx="319.77" ry="319.77" style="fill:#f60; stroke:#00ff04; stroke-miterlimit:10;"/></g><g id="c"><rect x="1299.91" y="203.71" width="1029.21" height="1029.21" rx="319.77" ry="319.77" style="fill:red; stroke:#00ff04; stroke-miterlimit:10;"/></g><g id="d"><rect x="1320.21" y="1326.32" width="1029.21" height="1029.21" rx="319.77" ry="319.77" style="fill:#0c0; stroke:#00ff04; stroke-miterlimit:10;"/></g><g id="e"><rect x="211.76" y="1326.32" width="1029.21" height="1029.21" rx="319.77" ry="319.77" style="fill:#30f; stroke:#00ff04; stroke-miterlimit:10;"/></g><g id="f"><rect x="255.13" y="271.01" width="2021.41" height="2021.41" rx="395.98" ry="395.98" transform="translate(1277.07 -519.67) rotate(45)" style="fill:#0e6100; stroke:#00ff04; stroke-miterlimit:10;"/></g><g id="g"><g><path d="M490.31,1054.61H232.95v164.98h215.13c19.94,0,34.82,4.48,44.65,13.42,9.82,8.95,14.74,20.9,14.74,35.86s-4.99,26.84-14.96,35.64c-9.97,8.8-24.79,13.2-44.43,13.2H232.95v212.49c0,26.99-6.09,47-18.26,60.05-12.17,13.05-27.79,19.58-46.85,19.58s-35.13-6.6-47.29-19.8c-12.17-13.2-18.26-33.14-18.26-59.83v-496.25c0-18.77,2.78-34.1,8.36-45.97,5.57-11.88,14.3-20.53,26.18-25.96,11.88-5.42,27.06-8.14,45.53-8.14H490.31c20.82,0,36.29,4.62,46.41,13.86,10.12,9.24,15.18,21.34,15.18,36.29s-5.06,27.5-15.18,36.74c-10.12,9.24-25.59,13.86-46.41,13.86Z" style="fill:#fff;"/><path d="M921.89,1542.06c-29.04,22.59-57.12,39.53-84.25,50.81-27.13,11.29-57.56,16.94-91.29,16.94-30.8,0-57.85-6.09-81.17-18.26-23.32-12.17-41.29-28.67-53.89-49.49-12.61-20.82-18.92-43.4-18.92-67.75,0-32.84,10.41-60.86,31.24-84.03,20.82-23.17,49.42-38.71,85.79-46.63,7.62-1.76,26.54-5.72,56.75-11.88,30.2-6.16,56.09-11.8,77.65-16.94,21.56-5.13,44.94-11.36,70.17-18.7-1.47-31.68-7.85-54.92-19.14-69.73-11.29-14.81-34.69-22.22-70.17-22.22-30.51,0-53.45,4.25-68.85,12.76-15.4,8.51-28.6,21.27-39.59,38.27-11,17.01-18.77,28.23-23.32,33.66-4.55,5.43-14.3,8.14-29.26,8.14-13.49,0-25.15-4.32-34.98-12.98-9.83-8.65-14.74-19.72-14.74-33.22,0-21.12,7.48-41.64,22.44-61.59,14.96-19.94,38.27-36.36,69.95-49.27,31.68-12.9,71.12-19.36,118.34-19.36,52.79,0,94.29,6.23,124.5,18.7,30.2,12.47,51.54,32.19,64.01,59.17,12.46,26.99,18.7,62.77,18.7,107.35,0,28.16-.08,52.06-.22,71.71-.15,19.65-.37,41.51-.66,65.55,0,22.59,3.74,46.12,11.22,70.61,7.48,24.49,11.22,40.25,11.22,47.29,0,12.32-5.79,23.54-17.38,33.66-11.59,10.12-24.71,15.18-39.37,15.18-12.32,0-24.49-5.79-36.52-17.38-12.03-11.58-24.79-28.38-38.27-50.37Zm-7.92-173.78c-17.6,6.46-43.19,13.27-76.77,20.46-33.59,7.19-56.83,12.47-69.73,15.84-12.91,3.38-25.23,9.97-36.96,19.8-11.73,9.83-17.6,23.54-17.6,41.13s6.89,33.66,20.68,46.41c13.78,12.76,31.82,19.14,54.11,19.14,23.76,0,45.68-5.2,65.77-15.62,20.09-10.41,34.82-23.83,44.21-40.25,10.85-18.18,16.28-48.1,16.28-89.75v-17.16Z" style="fill:#fff;"/><path d="M1272.97,1436.48v100.31c0,24.35-5.72,42.61-17.16,54.77s-25.96,18.26-43.55,18.26-31.53-6.16-42.67-18.48c-11.15-12.32-16.72-30.5-16.72-54.55v-334.36c0-53.96,19.5-80.95,58.51-80.95,19.94,0,34.32,6.31,43.11,18.92,8.8,12.61,13.64,31.24,14.52,55.87,14.37-24.64,29.11-43.26,44.21-55.87,15.1-12.61,35.26-18.92,60.49-18.92s49.71,6.31,73.47,18.92c23.76,12.61,35.63,29.33,35.63,50.15,0,14.67-5.06,26.77-15.18,36.29-10.12,9.53-21.05,14.3-32.78,14.3-4.4,0-15.03-2.71-31.89-8.14-16.87-5.42-31.75-8.14-44.65-8.14-17.6,0-31.97,4.62-43.12,13.86-11.15,9.24-19.8,22.95-25.96,41.13-6.16,18.19-10.41,39.81-12.76,64.89-2.35,25.08-3.52,55.65-3.52,91.73Z" style="fill:#fff;"/><path d="M1659.23,1624.77l11-26.84-147.82-372.19c-9.09-21.41-13.64-36.96-13.64-46.63,0-10.26,2.64-19.8,7.92-28.6s12.54-15.84,21.78-21.12c9.24-5.28,18.84-7.92,28.82-7.92,17.3,0,30.36,5.5,39.15,16.5,8.8,11,16.57,26.77,23.32,47.29l101.63,295.64,96.35-274.96c7.62-22.29,14.52-39.74,20.68-52.35,6.16-12.61,12.68-21.12,19.58-25.52,6.89-4.4,16.64-6.6,29.26-6.6,9.09,0,17.82,2.42,26.18,7.26,8.36,4.84,14.81,11.37,19.36,19.58,4.54,8.21,6.82,16.87,6.82,25.96-1.17,5.57-3.08,13.49-5.72,23.76-2.64,10.27-5.87,20.68-9.68,31.24l-156.62,410.03c-13.49,36.08-26.69,64.38-39.59,84.91-12.91,20.53-29.99,36.3-51.25,47.29-21.27,11-49.93,16.5-86.01,16.5s-61.59-3.82-79.19-11.44c-17.6-7.63-26.4-21.56-26.4-41.79,0-13.79,4.18-24.42,12.54-31.9,8.36-7.48,20.75-11.22,37.17-11.22,6.45,0,12.76,.88,18.92,2.64,7.62,1.76,14.22,2.64,19.8,2.64,13.78,0,24.64-2.06,32.56-6.16,7.92-4.11,15.03-11.22,21.34-21.34,6.3-10.12,13.56-25.01,21.78-44.65Z" style="fill:#fff;"/><path d="M2145.81,1187.91v14.52c21.12-27.86,44.21-48.32,69.29-61.37,25.08-13.05,53.89-19.58,86.45-19.58s59.98,6.89,84.91,20.68c24.93,13.79,43.55,33.29,55.87,58.51,7.92,14.67,13.05,30.51,15.4,47.51,2.34,17.01,3.52,38.72,3.52,65.11v223.49c0,24.05-5.5,42.23-16.5,54.55-11,12.32-25.3,18.48-42.89,18.48s-32.41-6.31-43.55-18.92c-11.15-12.61-16.72-30.64-16.72-54.11v-200.17c0-39.59-5.5-69.88-16.5-90.85-11-20.97-32.93-31.46-65.77-31.46-21.41,0-40.92,6.38-58.51,19.14-17.6,12.76-30.51,30.29-38.71,52.57-5.87,17.89-8.8,51.33-8.8,100.31v150.46c0,24.35-5.65,42.61-16.94,54.77-11.29,12.17-25.89,18.26-43.77,18.26s-31.53-6.31-42.67-18.92c-11.15-12.61-16.72-30.64-16.72-54.11v-347.11c0-22.88,4.98-39.96,14.96-51.25,9.97-11.29,23.61-16.94,40.91-16.94,10.56,0,20.09,2.5,28.6,7.48,8.5,4.99,15.32,12.47,20.46,22.44,5.13,9.97,7.7,22.15,7.7,36.52Z" style="fill:#fff;"/></g></g></svg>